<?xml version="1.0" encoding="UTF-8"?>
<svg width="480px" height="800px" viewBox="0 0 480 800" version="1.1" xmlns="http://www.w3.org/2000/svg" xmlns:xlink="http://www.w3.org/1999/xlink">
    <!-- Generator: Sketch 48.1 (47250) - http://www.bohemiancoding.com/sketch -->
    <title>part 1</title>
    <desc>Created with Sketch.</desc>
    <defs>
        <linearGradient x1="0%" y1="0%" x2="100%" y2="98.1660597%" id="linearGradient-1">
            <stop stop-color="#8F55A2" offset="0%"></stop>
            <stop stop-color="#72368D" offset="100%"></stop>
        </linearGradient>
        <polygon id="path-2" points="27.1494167 66 85.5580709 123.781442 74.8635993 135.397423 10 84.6271288"></polygon>
        <polygon id="path-3" points="53.0463568 41 104.959303 104.435891 93.0818892 114.894968 34 57.7719421"></polygon>
    </defs>
    <g id="Landing_page_mobile" stroke="none" stroke-width="1" fill="none" fill-rule="evenodd">
        <g id="part-1">
            <rect id="bg" fill="url(#linearGradient-1)" x="0" y="0" width="480" height="800"></rect>
            <path d="M463.5,66.5 L30,421" id="Line-2" stroke="#FFFFFF" stroke-width="3" stroke-linecap="square" stroke-dasharray="20"></path>
            <g id="Rectangle-1">
                <use fill="#FFFFFF" fill-rule="evenodd" xlink:href="#path-2"></use>
                <path stroke="#FFFFFF" stroke-width="1" d="M27.1662227,66.7199461 L10.7347419,84.5672767 L74.8083536,134.719229 L84.8635055,123.797656 L27.1662227,66.7199461 Z"></path>
            </g>
            <ellipse id="Oval-3-" stroke="#FFFFFF" stroke-width="3" opacity="0.3" stroke-dasharray="20" cx="237" cy="219" rx="195" ry="198"></ellipse>
            <g id="Logo_FrontSpot_Hackathon" transform="translate(92.000000, 115.000000)">
                <path d="M49.3072562,50.377037 L42.8278912,15.0051852 C45.8895692,13.9259259 47.5272109,11.1059259 46.70839,6.68444444 C45.960771,2.75037037 43.5399093,-0.278518519 39.4814059,0.452592593 C35.3160998,1.1837037 33.5360544,4.9437037 34.2124717,8.91259259 C34.9244898,12.8118519 37.3809524,14.8311111 40.9054422,15.04 L46.0319728,51.7348148 C40.2646259,54.0325926 34.8888889,57.9666667 34.8888889,57.9666667 C34.8888889,57.9666667 4.66371882,41.0814815 0.534013605,50.76 C-3.59569161,60.4733333 29.0503401,70.0822222 29.0503401,70.0822222 L19.6517007,234.756296 L94.59161,234.756296 L92.5979592,117.674074 C92.5979592,117.674074 141.371202,134.802963 153.226304,115.306667 C166.078231,94.1740741 143.115646,62.422963 105.022676,49.9592593 C98.6857143,47.8703704 92.0995465,46.617037 86.4390023,45.9903704 C88.1478458,39.097037 89.3226757,30.4281481 84.8013605,29.4185185 C79.7816327,28.3392593 76.7911565,38.3659259 75.3315193,45.4681481 C71.5222222,45.5377778 68.4961451,45.7466667 65.114059,46.2688889 L64.4732426,16.2933333 C67.2145125,16.1192593 69.0301587,14.482963 69.9201814,12.1503704 C71.1662132,8.77333333 70.5965986,5.04814815 67.1433107,3.72518519 C64.0460317,2.54148148 60.6283447,3.69037037 59.2043084,7.38074074 C57.8870748,10.7577778 58.0294785,14.8659259 62.4795918,16.2585185 L61.7319728,47.0348148 C58.1006803,47.5918519 53.4369615,48.8451852 49.3072562,50.377037 Z" id="Shape" fill="#FDE522"></path>
                <path d="M101.320181,61.0303704 C102.388209,61.0303704 103.24263,60.1948148 103.24263,59.1503704 C103.24263,58.1059259 102.388209,57.2703704 101.320181,57.2703704 C100.252154,57.2703704 99.3977324,58.1059259 99.3977324,59.1503704 C99.3977324,60.1948148 100.287755,61.0303704 101.320181,61.0303704 Z M91.7435374,67.6103704 C93.3455782,67.6103704 94.6272109,66.357037 94.6272109,64.7903704 C94.6272109,63.2237037 93.3455782,61.9703704 91.7435374,61.9703704 C90.1414966,61.9703704 88.8598639,63.2237037 88.8598639,64.7903704 C88.8598639,66.357037 90.1414966,67.6103704 91.7435374,67.6103704 Z" id="Shape" fill="#83489A"></path>
                <path d="M135.603855,66.357037 C135.03424,66.8096296 134.429025,67.2622222 133.85941,67.7148148 C116.023356,82.337037 107.977551,103.678519 111.217234,122.617778 C126.312018,125.577037 146.212925,126.83037 153.226304,115.306667 C162.09093,100.754074 153.938322,81.1881481 135.603855,66.357037 Z" id="Shape" fill="#FE54EF"></path>
                <g id="Group" transform="translate(21.716553, 103.051852)" fill="#864B9B" fill-rule="nonzero">
                    <path d="M13.421542,12.777037 L16.6612245,9.60888889 C17.230839,9.81777778 17.8004535,9.92222222 18.4412698,9.92222222 C21.1825397,9.92222222 23.4253968,7.72888889 23.4253968,5.04814815 C23.4253968,2.36740741 21.1825397,0.174074074 18.4412698,0.174074074 C15.7,0.174074074 13.4571429,2.36740741 13.4571429,5.04814815 C13.4571429,5.98814815 13.7419501,6.8237037 14.2047619,7.58962963 L11.6414966,10.0962963 L4.87732426,10.0962963 L4.69931973,13.2296296 L12.2823129,13.2296296 C12.7095238,13.2296296 13.1011338,13.0555556 13.421542,12.777037 Z M18.4412698,3.30740741 C19.4380952,3.30740741 20.2213152,4.07333333 20.2213152,5.04814815 C20.2213152,6.02296296 19.4380952,6.78888889 18.4412698,6.78888889 C17.4444444,6.78888889 16.6612245,6.02296296 16.6612245,5.04814815 C16.6612245,4.07333333 17.4800454,3.30740741 18.4412698,3.30740741 Z" id="Shape"></path>
                    <path d="M36.5265306,33.8748148 C36.8113379,34.1881481 37.2385488,34.3274074 37.6657596,34.3274074 L57.8870748,34.3274074 C58.5634921,36.2422222 60.4147392,37.6348148 62.5863946,37.6348148 C65.3276644,37.6348148 67.5705215,35.4414815 67.5705215,32.7607407 C67.5705215,30.08 65.3276644,27.8866667 62.5863946,27.8866667 C60.4147392,27.8866667 58.5278912,29.2792593 57.8870748,31.1940741 L38.3421769,31.1940741 L23.8526077,16.92 C23.5678005,16.6066667 23.1405896,16.4674074 22.7133787,16.4674074 L4.52131519,16.4674074 L4.34331066,19.6007407 L22.0725624,19.6007407 L36.5265306,33.8748148 Z M62.5863946,31.0548148 C63.58322,31.0548148 64.3664399,31.8207407 64.3664399,32.7955556 C64.3664399,33.7703704 63.58322,34.5362963 62.5863946,34.5362963 C61.5895692,34.5362963 60.8063492,33.7703704 60.8063492,32.7955556 C60.8063492,31.8207407 61.6251701,31.0548148 62.5863946,31.0548148 Z" id="Shape"></path>
                    <path d="M32.6816327,40.2459259 L32.6816327,45.9207407 C30.6879819,46.5822222 29.2639456,48.3925926 29.2639456,50.5511111 C29.2639456,53.2318519 31.5068027,55.4251852 34.2480726,55.4251852 C36.9893424,55.4251852 39.2321995,53.2318519 39.2321995,50.5511111 C39.2321995,48.4274074 37.8437642,46.617037 35.8857143,45.9555556 L35.8857143,39.6192593 C35.8857143,39.2014815 35.7077098,38.8185185 35.4229025,38.54 L20.1145125,23.2214815 C19.8297052,22.9081481 19.4024943,22.7340741 18.9752834,22.7340741 L4.16530612,22.7340741 L3.98730159,25.8674074 L18.2988662,25.8674074 L32.6816327,40.2459259 Z M34.2480726,48.8103704 C35.244898,48.8103704 36.0281179,49.5762963 36.0281179,50.5511111 C36.0281179,51.5259259 35.244898,52.2918519 34.2480726,52.2918519 C33.2512472,52.2918519 32.4680272,51.5259259 32.4680272,50.5511111 C32.4680272,49.5762963 33.2512472,48.8103704 34.2480726,48.8103704 Z" id="Shape"></path>
                    <path d="M20.2213152,94.1740741 L49.3428571,65.6955556 C49.6276644,65.417037 49.8056689,64.9992593 49.8056689,64.5814815 L49.8056689,46.7911111 C51.7637188,46.1296296 53.1877551,44.3192593 53.1877551,42.1955556 C53.1877551,39.5148148 50.944898,37.3214815 48.2036281,37.3214815 C45.4623583,37.3214815 43.2195011,39.5148148 43.2195011,42.1955556 C43.2195011,44.3192593 44.6435374,46.1644444 46.6015873,46.7911111 L46.6015873,63.92 L17.4800454,92.3985185 C17.1952381,92.677037 17.0172336,93.0948148 17.0172336,93.5125926 L17.0172336,131.66963 L20.2213152,131.66963 L20.2213152,94.1740741 Z M46.4591837,42.1955556 C46.4591837,41.2207407 47.2424036,40.4548148 48.239229,40.4548148 C49.2360544,40.4548148 50.0192744,41.2207407 50.0192744,42.1955556 C50.0192744,43.1703704 49.2360544,43.9362963 48.239229,43.9362963 C47.2424036,43.9362963 46.4591837,43.1355556 46.4591837,42.1955556 Z" id="Shape"></path>
                    <path d="M27.0566893,97.6207407 L55.9646259,69.3511111 C56.2494331,69.0725926 56.4274376,68.6548148 56.4274376,68.237037 L56.4274376,61.6222222 L60.521542,57.6185185 C61.2335601,58.0014815 62.052381,58.2451852 62.9424036,58.2451852 C65.6836735,58.2451852 67.9265306,56.0518519 67.9265306,53.3711111 C67.9265306,50.6903704 65.6836735,48.497037 62.9424036,48.497037 C60.2011338,48.497037 57.9582766,50.6903704 57.9582766,53.3711111 C57.9582766,54.0674074 58.1006803,54.7288889 58.3854875,55.3207407 L53.6861678,59.8814815 C53.4013605,60.16 53.223356,60.5777778 53.223356,60.9955556 L53.223356,67.6103704 L24.3154195,95.88 C24.0306122,96.1585185 23.8526077,96.5762963 23.8526077,96.9940741 L23.8526077,131.739259 L27.0566893,131.739259 L27.0566893,97.6207407 Z M62.9424036,51.6303704 C63.939229,51.6303704 64.722449,52.3962963 64.722449,53.3711111 C64.722449,54.3459259 63.939229,55.1118519 62.9424036,55.1118519 C61.9455782,55.1118519 61.1623583,54.3459259 61.1623583,53.3711111 C61.1623583,52.3962963 61.9811791,51.6303704 62.9424036,51.6303704 Z" id="Shape"></path>
                    <path d="M46.5303855,107.22963 L55.6798186,98.2822222 L59.0263039,98.2822222 C59.7027211,100.197037 61.5539683,101.58963 63.7256236,101.58963 C66.4668934,101.58963 68.7097506,99.3962963 68.7097506,96.7155556 C68.7097506,94.0348148 66.4668934,91.8414815 63.7256236,91.8414815 C61.5539683,91.8414815 59.6671202,93.2340741 59.0263039,95.1488889 L55.0034014,95.1488889 C54.5761905,95.1488889 54.1845805,95.322963 53.8641723,95.6014815 L43.7891156,105.488889 C43.5043084,105.767407 43.3263039,106.185185 43.3263039,106.602963 L43.3263039,131.704444 L46.5303855,131.704444 L46.5303855,107.22963 Z M63.7256236,94.9748148 C64.722449,94.9748148 65.5056689,95.7407407 65.5056689,96.7155556 C65.5056689,97.6903704 64.722449,98.4562963 63.7256236,98.4562963 C62.7287982,98.4562963 61.9455782,97.6903704 61.9455782,96.7155556 C61.9455782,95.7407407 62.7287982,94.9748148 63.7256236,94.9748148 Z" id="Shape"></path>
                    <path d="M72.376644,103.574074 L65.861678,109.945185 L62.0879819,109.945185 C61.4115646,108.03037 59.5603175,106.637778 57.3886621,106.637778 C54.6473923,106.637778 52.4045351,108.831111 52.4045351,111.511852 C52.4045351,114.192593 54.6473923,116.385926 57.3886621,116.385926 C59.5603175,116.385926 61.4471655,114.993333 62.0879819,113.078519 L66.5380952,113.078519 C66.9653061,113.078519 67.3569161,112.904444 67.6773243,112.625926 L72.4834467,107.925926 L72.376644,103.574074 Z M57.3530612,113.252593 C56.3562358,113.252593 55.5730159,112.486667 55.5730159,111.511852 C55.5730159,110.537037 56.3562358,109.771111 57.3530612,109.771111 C58.3498866,109.771111 59.1331066,110.537037 59.1331066,111.511852 C59.1331066,112.486667 58.3142857,113.252593 57.3530612,113.252593 Z" id="Shape"></path>
                    <path d="M6.23015873,60.3340741 C7.12018141,60.3340741 7.83219955,59.6377778 7.83219955,58.7674074 L7.83219955,56.5392593 L10.324263,56.5392593 L10.324263,58.7674074 C10.324263,59.6377778 11.0362812,60.3340741 11.9263039,60.3340741 C12.8163265,60.3340741 13.5283447,59.6377778 13.5283447,58.7674074 L13.5283447,56.5392593 L16.0204082,56.5392593 L16.0204082,58.7674074 C16.0204082,59.6377778 16.7324263,60.3340741 17.622449,60.3340741 C18.5124717,60.3340741 19.2244898,59.6377778 19.2244898,58.7674074 L19.2244898,56.4348148 C21.0401361,56.0518519 22.4285714,54.52 22.5353741,52.64 L24.9562358,52.64 C25.8462585,52.64 26.5582766,51.9437037 26.5582766,51.0733333 C26.5582766,50.202963 25.8462585,49.5066667 24.9562358,49.5066667 L22.5353741,49.5066667 L22.5353741,47.0696296 L24.9562358,47.0696296 C25.8462585,47.0696296 26.5582766,46.3733333 26.5582766,45.502963 C26.5582766,44.6325926 25.8462585,43.9362963 24.9562358,43.9362963 L22.5353741,43.9362963 L22.5353741,41.4992593 L24.9562358,41.4992593 C25.8462585,41.4992593 26.5582766,40.802963 26.5582766,39.9325926 C26.5582766,39.0622222 25.8462585,38.3659259 24.9562358,38.3659259 L22.5353741,38.3659259 C22.4285714,36.4859259 21.0401361,34.9540741 19.2244898,34.5711111 L19.2244898,32.1688889 C19.2244898,31.2985185 18.5124717,30.6022222 17.622449,30.6022222 C16.7324263,30.6022222 16.0204082,31.2985185 16.0204082,32.1688889 L16.0204082,34.5014815 L13.5283447,34.5014815 L13.5283447,32.1688889 C13.5283447,31.2985185 12.8163265,30.6022222 11.9263039,30.6022222 C11.0362812,30.6022222 10.324263,31.2985185 10.324263,32.1688889 L10.324263,34.5014815 L7.83219955,34.5014815 L7.83219955,32.1688889 C7.83219955,31.2985185 7.12018141,30.6022222 6.23015873,30.6022222 C5.34013605,30.6022222 4.62811791,31.2985185 4.62811791,32.1688889 L4.62811791,34.5014815 L3.48888889,34.5014815 L3.31088435,37.6348148 L18.3344671,37.6348148 C18.9040816,37.6348148 19.3312925,38.0874074 19.3312925,38.6096296 L19.3312925,52.4311111 C19.3312925,52.9881481 18.8684807,53.4059259 18.3344671,53.4059259 L2.38526077,53.4059259 L2.20725624,56.5392593 L4.62811791,56.5392593 L4.62811791,58.7674074 C4.62811791,59.602963 5.34013605,60.3340741 6.23015873,60.3340741 Z" id="Shape"></path>
                    <path d="M33.6072562,131.704444 L33.6072562,100.545185 L61.0555556,73.702963 C61.7319728,74.0511111 62.5151927,74.26 63.3340136,74.26 C66.0752834,74.26 68.3181406,72.0666667 68.3181406,69.3859259 C68.3181406,66.7051852 66.0752834,64.5118519 63.3340136,64.5118519 C60.5927438,64.5118519 58.3498866,66.7051852 58.3498866,69.3859259 C58.3498866,70.117037 58.5278912,70.8481481 58.8482993,71.4748148 L30.9015873,98.8044444 C30.61678,99.082963 30.4387755,99.5007407 30.4387755,99.9185185 L30.4387755,131.739259 L33.6072562,131.739259 L33.6072562,131.704444 Z M63.2984127,67.6103704 C64.2952381,67.6103704 65.078458,68.3762963 65.078458,69.3511111 C65.078458,70.3259259 64.2952381,71.0918519 63.2984127,71.0918519 C62.3015873,71.0918519 61.5183673,70.3259259 61.5183673,69.3511111 C61.5183673,68.3762963 62.3015873,67.6103704 63.2984127,67.6103704 Z" id="Shape"></path>
                    <path d="M40.1222222,131.704444 L40.1222222,103.748148 L58.7770975,85.5051852 C59.4535147,87.3851852 61.3047619,88.7777778 63.4764172,88.7777778 C66.2176871,88.7777778 68.4605442,86.5844444 68.4605442,83.9037037 C68.4605442,81.222963 66.2176871,79.0296296 63.4764172,79.0296296 C61.3047619,79.0296296 59.4179138,80.4222222 58.7770975,82.337037 L58.1718821,82.337037 C57.7446712,82.337037 57.3530612,82.5111111 57.0326531,82.7896296 L37.3809524,102.007407 C37.0961451,102.285926 36.9181406,102.703704 36.9181406,103.121481 L36.9181406,131.704444 L40.1222222,131.704444 Z M63.4408163,82.162963 C64.4376417,82.162963 65.2208617,82.9288889 65.2208617,83.9037037 C65.2208617,84.8785185 64.4376417,85.6444444 63.4408163,85.6444444 C62.4439909,85.6444444 61.660771,84.8785185 61.660771,83.9037037 C61.660771,82.9288889 62.4795918,82.162963 63.4408163,82.162963 Z" id="Shape"></path>
                    <path d="M8.43741497,84.4955556 L10.9650794,84.4955556 C11.6414966,86.4103704 13.4927438,87.802963 15.6643991,87.802963 C18.4056689,87.802963 20.6485261,85.6096296 20.6485261,82.9288889 C20.6485261,80.2481481 18.4056689,78.0548148 15.6643991,78.0548148 C13.4927438,78.0548148 11.6058957,79.4474074 10.9650794,81.3622222 L7.79659864,81.3622222 C7.36938776,81.3622222 6.97777778,81.5362963 6.65736961,81.8148148 L0.462811791,87.8725926 L0.178004535,92.5725926 L8.43741497,84.4955556 Z M15.6643991,81.1881481 C16.6612245,81.1881481 17.4444444,81.9540741 17.4444444,82.9288889 C17.4444444,83.9037037 16.6612245,84.6696296 15.6643991,84.6696296 C14.6675737,84.6696296 13.8843537,83.9037037 13.8843537,82.9288889 C13.8843537,81.9540741 14.6675737,81.1881481 15.6643991,81.1881481 Z" id="Shape"></path>
                    <path d="M4.98412698,75.0955556 L20.4349206,75.0955556 C21.1113379,77.0103704 22.962585,78.402963 25.1342404,78.402963 C27.8755102,78.402963 30.1183673,76.2096296 30.1183673,73.5288889 C30.1183673,70.8481481 27.8755102,68.6548148 25.1342404,68.6548148 C22.962585,68.6548148 21.075737,70.0474074 20.4349206,71.9622222 L4.34331066,71.9622222 C3.91609977,71.9622222 3.5244898,72.1362963 3.20408163,72.4148148 L1.21043084,74.3644444 L0.925623583,79.0644444 L4.98412698,75.0955556 Z M25.1698413,71.7881481 C26.1666667,71.7881481 26.9498866,72.5540741 26.9498866,73.5288889 C26.9498866,74.5037037 26.1666667,75.2696296 25.1698413,75.2696296 C24.1730159,75.2696296 23.3897959,74.5037037 23.3897959,73.5288889 C23.3897959,72.5540741 24.1730159,71.7881481 25.1698413,71.7881481 Z" id="Shape"></path>
                    <path d="M34.2480726,69.4555556 C36.9893424,69.4555556 39.2321995,67.2622222 39.2321995,64.5814815 C39.2321995,61.9007407 36.9893424,59.7074074 34.2480726,59.7074074 C32.0764172,59.7074074 30.1895692,61.1 29.5487528,63.0148148 L1.85124717,63.0148148 L1.67324263,66.1481481 L29.5487528,66.1481481 C30.1895692,68.062963 32.0764172,69.4555556 34.2480726,69.4555556 Z M34.2480726,62.8407407 C35.244898,62.8407407 36.0281179,63.6066667 36.0281179,64.5814815 C36.0281179,65.5562963 35.244898,66.3222222 34.2480726,66.3222222 C33.2512472,66.3222222 32.4680272,65.5562963 32.4680272,64.5814815 C32.4680272,63.6066667 33.2512472,62.8407407 34.2480726,62.8407407 Z" id="Shape"></path>
                    <path d="M8.50861678,93.6866667 C5.09092971,93.6866667 2.27845805,96.437037 2.27845805,99.7792593 C2.27845805,103.121481 5.09092971,105.871852 8.50861678,105.871852 C11.9263039,105.871852 14.7387755,103.121481 14.7387755,99.7792593 C14.7387755,96.437037 11.9619048,93.6866667 8.50861678,93.6866667 Z M8.50861678,102.738519 C6.83537415,102.738519 5.48253968,101.415556 5.48253968,99.7792593 C5.48253968,98.142963 6.83537415,96.82 8.50861678,96.82 C10.1818594,96.82 11.5346939,98.142963 11.5346939,99.7792593 C11.5346939,101.415556 10.1818594,102.738519 8.50861678,102.738519 Z" id="Shape"></path>
                </g>
            </g>
            <path d="M165.243856,345.930131 C239.639547,345.930131 299.487713,288.817533 299.487713,218.965066 C299.487713,149.112598 239.639547,92 165.243856,92 C129.726211,92 96.4974008,105.072264 71.6069548,127.996329 C45.7616142,151.799851 31,184.276393 31,218.965066 C31,288.817533 90.8481653,345.930131 165.243856,345.930131 Z" id="Oval-1" stroke="#ED2478" stroke-width="50"></path>
            <ellipse id="Oval-2" stroke="#FFFFFF" stroke-width="3" cx="185" cy="219" rx="179" ry="174"></ellipse>
            <path d="M384,45.3487685 L168,399" id="Line-4" stroke="#FFFFFF" stroke-width="3" opacity="0.3" stroke-linecap="square"></path>
            <path d="M177,120.591242 L241.624242,46" id="Line-3" stroke="#FFFFFF" stroke-width="3" stroke-linecap="square"></path>
            <path d="M244,144.945323 L326.848659,90.3229799" id="Line-1" stroke="#FFFFFF" stroke-width="3" stroke-linecap="square"></path>
            <g id="&lt;&gt;" transform="translate(365.000000, 135.000000)" fill="#FFFFFF" font-family="OpenSans-Bold, Open Sans" font-size="24" font-weight="bold">
                <text>
                    <tspan x="0" y="38.3088235">&lt;&gt;</tspan>
                </text>
                <text>
                    <tspan x="62.64" y="74.3382353">&lt;&gt;</tspan>
                </text>
                <text>
                    <tspan x="14.04" y="101">&lt;&gt;</tspan>
                </text>
            </g>
            <g id="Rectangle-2">
                <use fill="#FFFFFF" fill-rule="evenodd" xlink:href="#path-3"></use>
                <path stroke="#FFFFFF" stroke-width="1" d="M52.9877292,41.717853 L34.7370832,57.7891038 L93.0977258,114.214796 L104.266944,104.379346 L52.9877292,41.717853 Z"></path>
            </g>
            <polygon id="logo_antenna" fill="#FAE923" points="130.384889 115.490285 131.628962 115.130885 132.72521 115 133.913098 115.245143 135.27597 115.725695 135.921175 116.263427 137.073299 117.379343 137.965639 118.877572 138.541286 120.293884 139 122.080444 139 123.741493 138.772561 126.058385 137.965639 127.894116 136.680826 129.164437 134.990272 130.022132 132.950369 130.206242 131.628962 130.022132 130.384889 129.624409 129.442478 129.164437 128.655046 128.377811 127.800957 127.388116 127.158758 126.509334 126.746589 125.625786 126.360337 124.562589 126.1641 123.462388 126 122.270232 126 121.098657 126.360337 119.813737 126.746589 118.707655 127.468195 117.754762 128.273976 116.737694 129.158439 116.042921"></polygon>
            <text id="///////////////" font-family="OpenSans-Bold, Open Sans" font-size="24" font-weight="bold" fill="#FFFFFF">
                <tspan x="246" y="286">///////////////</tspan>
            </text>
        </g>
    </g>
</svg>